<?xml version="1.0" encoding="UTF-8"?>
<svg id="Layer_2" data-name="Layer 2" xmlns="http://www.w3.org/2000/svg" xmlns:xlink="http://www.w3.org/1999/xlink" viewBox="0 0 178 37.51">
  <defs>
    <style>
      .cls-1 {
        fill: url(#linear-gradient-2);
      }

      .cls-2 {
        fill: url(#linear-gradient-6);
      }

      .cls-3 {
        letter-spacing: 0em;
      }

      .cls-4 {
        fill: url(#linear-gradient-10);
      }

      .cls-5 {
        fill: url(#linear-gradient-5);
      }

      .cls-6 {
        letter-spacing: 0em;
      }

      .cls-7 {
        fill: none;
      }

      .cls-8 {
        fill: url(#linear-gradient-7);
      }

      .cls-9 {
        fill: url(#linear-gradient-9);
      }

      .cls-10 {
        fill: url(#linear-gradient-3);
      }

      .cls-11 {
        fill: url(#linear-gradient);
      }

      .cls-12 {
        letter-spacing: -.07em;
      }

      .cls-13 {
        font-family: ATCArquette-Black, 'ATCArquette Black';
        font-size: 17.76px;
      }

      .cls-14 {
        fill: url(#linear-gradient-4);
      }

      .cls-15 {
        fill: url(#linear-gradient-8);
      }
    </style>
    <linearGradient id="linear-gradient" x1="51.15" y1="15.17" x2="100.8" y2="15.17" gradientUnits="userSpaceOnUse">
      <stop offset="0" stop-color="#0072ff"/>
      <stop offset="1" stop-color="#00c6ff"/>
    </linearGradient>
    <linearGradient id="linear-gradient-2" x1="1.11" y1="4.71" x2="53.41" y2="4.71" xlink:href="#linear-gradient"/>
    <linearGradient id="linear-gradient-3" x1="50.8" y1="27.89" x2="64.18" y2="27.89" xlink:href="#linear-gradient"/>
    <linearGradient id="linear-gradient-4" x1="32.06" y1="31.85" x2="47.88" y2="31.85" gradientUnits="userSpaceOnUse">
      <stop offset="0" stop-color="#00c6ff"/>
      <stop offset="1" stop-color="#0072ff"/>
    </linearGradient>
    <linearGradient id="linear-gradient-5" x1="1.07" y1="20.45" x2="16.8" y2="20.45" xlink:href="#linear-gradient"/>
    <linearGradient id="linear-gradient-6" x1="1.07" y1="10.57" x2="16.8" y2="10.57" xlink:href="#linear-gradient-4"/>
    <linearGradient id="linear-gradient-7" x1="16.76" y1="21.07" x2="31.26" y2="21.07" xlink:href="#linear-gradient"/>
    <linearGradient id="linear-gradient-8" x1="31.38" y1="13.26" y2="13.26" xlink:href="#linear-gradient-4"/>
    <linearGradient id="linear-gradient-9" x1="31.38" y1="22.03" x2="47.88" y2="22.03" xlink:href="#linear-gradient"/>
    <linearGradient id="linear-gradient-10" x1="1.07" y1="28.92" x2="16.8" y2="28.92" xlink:href="#linear-gradient-4"/>
  </defs>
  <g id="Layer_1-2" data-name="Layer 1">
    <rect class="cls-7" y="1.51" width="171.57" height="32.55"/>
    <g>
      <path class="cls-11" d="M100.8,6.65h0s-36.78,0-36.78,0V28.22c0-3-5.35-5.56-12.87-6.57V7.37c0-2.09,2.59-3.96,6.71-5.25h30.07c7.11,0,12.87,2.03,12.87,4.53Z"/>
      <path class="cls-1" d="M53.2,2.52c-3.57,1.22-5.99,2.8-6.68,4.57-.04,.11-.28,.19-.59,.21h0c-.05,0-.11,0-.16,0H1.11c0-2.88,7.08-5.21,15.82-5.21H52.66c.67,0,1.01,.27,.54,.43Z"/>
      <path class="cls-10" d="M64.18,27.9v5.85h0c-7.39,0-13.38-1.81-13.38-4.04v-7.67c7.82,.9,13.38,3.19,13.38,5.87Z"/>
      <path class="cls-14" d="M47.88,30.17v3.35c-4.55,0-8.68-.42-11.67-1.09-1.92-.43-3.37-.97-4.15-1.57,1.02,.03,2.06,.04,3.11,.04,4.62,0,8.96-.27,12.71-.74Z"/>
      <path class="cls-5" d="M16.8,12.74v11.08c-9.08,.61-15.73,2.57-15.73,4.9V12.28c1.58-.07,3.22-.11,4.9-.11,3.88,0,7.56,.21,10.83,.58Z"/>
      <path class="cls-2" d="M16.8,12.41v.03c-3.27-.37-6.95-.58-10.83-.58-1.68,0-3.32,.04-4.9,.11v-3.27c4.34,0,8.28,.41,11.12,1.08,2.85,.67,4.61,1.59,4.61,2.62Z"/>
      <path class="cls-8" d="M31.26,18.53s0,.08,0,.13c-.08,2.75-2.8,4.97-6.14,4.97h-8.36c0-1.41,.69-2.68,1.8-3.6,1.11-.92,2.65-1.49,4.34-1.49h8.36Z"/>
      <path class="cls-15" d="M47.88,12.11v1.09c0,2.34-6.98,4.31-16.5,4.91V8.4c.6,0,1.19,0,1.77,.02,3.85,.09,7.3,.48,9.89,1.06,2.99,.67,4.83,1.6,4.83,2.62Z"/>
      <path class="cls-9" d="M47.88,13.45V29.87c-3.76,.47-8.1,.74-12.71,.74-1.05,0-2.09-.01-3.11-.04-.44-.33-.68-.69-.68-1.05v-11.14c9.52-.61,16.5-2.58,16.5-4.91Z"/>
      <path class="cls-4" d="M16.8,24.07v9.7c-.57,0-1.13,0-1.69-.02-3.67-.09-6.96-.48-9.43-1.06-2.85-.67-4.61-1.59-4.61-2.62v-1.09c0-2.33,6.65-4.3,15.73-4.9Z"/>
    </g>
    <text class="cls-13" transform="translate(100.28 14.86) scale(1.81 1)"><tspan class="cls-12" x="0" y="0">T</tspan><tspan x="7.56" y="0">ech</tspan></text>
    <text class="cls-13" transform="translate(64.99 29.97) scale(1.81 1)"><tspan x="0" y="0">s</tspan><tspan class="cls-3" x="7.03" y="0">y</tspan><tspan x="15.29" y="0">s</tspan><tspan class="cls-6" x="22.32" y="0">t</tspan><tspan x="28.09" y="0">em</tspan></text>
  </g>
</svg>